# xmcd
#
# Track frame offsets:
#	150
#	17277
#	32207
#	47002
#	63141
#	78982
#	93215
#	110120
#	123846
#	140342
#	153750
#	170943
#	188242
#	209412
#	225528
#
# Disc length: 3190 seconds
#
# Revision: 0
# Processed by: cddbd v1.5.2PL0 Copyright (c) Steve Scherf et al.
# Submitted via: audiograbber 1.83.01
#
DISCID=bd0c740f
DTITLE=Lorrie Morgan - CB90023 Chartbuster (CB)
DYEAR=1900
DGENRE=Karaoke
TTITLE0=Dear Me (CB)
TTITLE1=Out Of Your Shoes (CB)
TTITLE2=Trainwreck Of Emotion (CB)
TTITLE3=Five Minutes (CB)
TTITLE4=He Talks To Me (CB)
TTITLE5=We Both Walk (CB)
TTITLE6=A Picture Of Me Without You (CB)
TTITLE7=Except For Monday (CB)
TTITLE8=Watch Me (CB)
TTITLE9=What Part Of No (CB)
TTITLE10=If You Came Back From Heaven (CB)
TTITLE11=Back In Your Arms Again (CB)
TTITLE12=Something In Red (CB)
TTITLE13=Good As I Was To You (CB)
TTITLE14=Go Away (CB)
EXTD=
EXTT0=
EXTT1=
EXTT2=
EXTT3=
EXTT4=
EXTT5=
EXTT6=
EXTT7=
EXTT8=
EXTT9=
EXTT10=
EXTT11=
EXTT12=
EXTT13=
EXTT14=
PLAYORDER=
